<mxfile host="app.diagrams.net" modified="2022-04-13T09:28:59.532Z" agent="5.0 (Windows NT 10.0; Win64; x64) AppleWebKit/537.36 (KHTML, like Gecko) Chrome/100.0.4896.88 Safari/537.36" etag="ZTIhdD0e193TpogbGBQT" version="17.4.3" type="github">
  <diagram id="3ABdKyprmzU5fOX1rQa4" name="Page-1">
    <mxGraphModel dx="1179" dy="1890" grid="1" gridSize="10" guides="1" tooltips="1" connect="1" arrows="1" fold="1" page="1" pageScale="1" pageWidth="827" pageHeight="1169" math="0" shadow="0">
      <root>
        <mxCell id="0" />
        <mxCell id="1" parent="0" />
        <mxCell id="jbE2yOuMQ7MMqZ4LfyGk-3" style="edgeStyle=orthogonalEdgeStyle;rounded=0;orthogonalLoop=1;jettySize=auto;html=1;exitX=0.5;exitY=1;exitDx=0;exitDy=0;entryX=0;entryY=0.25;entryDx=0;entryDy=0;" edge="1" parent="1" source="jbE2yOuMQ7MMqZ4LfyGk-1" target="jbE2yOuMQ7MMqZ4LfyGk-2">
          <mxGeometry relative="1" as="geometry" />
        </mxCell>
        <mxCell id="jbE2yOuMQ7MMqZ4LfyGk-8" style="edgeStyle=orthogonalEdgeStyle;rounded=0;orthogonalLoop=1;jettySize=auto;html=1;exitX=1;exitY=0.5;exitDx=0;exitDy=0;entryX=0.25;entryY=0;entryDx=0;entryDy=0;" edge="1" parent="1" source="jbE2yOuMQ7MMqZ4LfyGk-1" target="jbE2yOuMQ7MMqZ4LfyGk-9">
          <mxGeometry relative="1" as="geometry" />
        </mxCell>
        <mxCell id="jbE2yOuMQ7MMqZ4LfyGk-23" style="edgeStyle=orthogonalEdgeStyle;rounded=0;orthogonalLoop=1;jettySize=auto;html=1;exitX=0.5;exitY=0;exitDx=0;exitDy=0;entryX=0.75;entryY=1;entryDx=0;entryDy=0;" edge="1" parent="1" source="jbE2yOuMQ7MMqZ4LfyGk-1" target="jbE2yOuMQ7MMqZ4LfyGk-22">
          <mxGeometry relative="1" as="geometry" />
        </mxCell>
        <mxCell id="jbE2yOuMQ7MMqZ4LfyGk-26" style="edgeStyle=orthogonalEdgeStyle;rounded=0;orthogonalLoop=1;jettySize=auto;html=1;exitX=1;exitY=0.25;exitDx=0;exitDy=0;entryX=0;entryY=0.5;entryDx=0;entryDy=0;" edge="1" parent="1" source="jbE2yOuMQ7MMqZ4LfyGk-1" target="jbE2yOuMQ7MMqZ4LfyGk-25">
          <mxGeometry relative="1" as="geometry" />
        </mxCell>
        <mxCell id="jbE2yOuMQ7MMqZ4LfyGk-37" style="edgeStyle=orthogonalEdgeStyle;rounded=0;orthogonalLoop=1;jettySize=auto;html=1;exitX=0.75;exitY=1;exitDx=0;exitDy=0;entryX=0.5;entryY=0;entryDx=0;entryDy=0;" edge="1" parent="1" source="jbE2yOuMQ7MMqZ4LfyGk-1" target="jbE2yOuMQ7MMqZ4LfyGk-35">
          <mxGeometry relative="1" as="geometry" />
        </mxCell>
        <mxCell id="jbE2yOuMQ7MMqZ4LfyGk-43" style="edgeStyle=orthogonalEdgeStyle;rounded=0;orthogonalLoop=1;jettySize=auto;html=1;exitX=1;exitY=0.75;exitDx=0;exitDy=0;entryX=-0.008;entryY=0.367;entryDx=0;entryDy=0;entryPerimeter=0;" edge="1" parent="1" source="jbE2yOuMQ7MMqZ4LfyGk-1" target="jbE2yOuMQ7MMqZ4LfyGk-41">
          <mxGeometry relative="1" as="geometry">
            <mxPoint x="250" y="205" as="targetPoint" />
          </mxGeometry>
        </mxCell>
        <mxCell id="jbE2yOuMQ7MMqZ4LfyGk-1" value="Product Model" style="rounded=1;whiteSpace=wrap;html=1;fillColor=#fff2cc;strokeColor=#d6b656;" vertex="1" parent="1">
          <mxGeometry x="40" y="140" width="120" height="60" as="geometry" />
        </mxCell>
        <mxCell id="jbE2yOuMQ7MMqZ4LfyGk-7" style="edgeStyle=orthogonalEdgeStyle;rounded=0;orthogonalLoop=1;jettySize=auto;html=1;exitX=1;exitY=0.5;exitDx=0;exitDy=0;startArrow=none;entryX=0;entryY=0.5;entryDx=0;entryDy=0;" edge="1" parent="1" source="jbE2yOuMQ7MMqZ4LfyGk-9" target="jbE2yOuMQ7MMqZ4LfyGk-4">
          <mxGeometry relative="1" as="geometry">
            <mxPoint x="500" y="350" as="targetPoint" />
          </mxGeometry>
        </mxCell>
        <mxCell id="jbE2yOuMQ7MMqZ4LfyGk-24" style="edgeStyle=orthogonalEdgeStyle;rounded=0;orthogonalLoop=1;jettySize=auto;html=1;exitX=0;exitY=0.5;exitDx=0;exitDy=0;entryX=0.075;entryY=1.017;entryDx=0;entryDy=0;entryPerimeter=0;" edge="1" parent="1" source="jbE2yOuMQ7MMqZ4LfyGk-2" target="jbE2yOuMQ7MMqZ4LfyGk-22">
          <mxGeometry relative="1" as="geometry" />
        </mxCell>
        <mxCell id="jbE2yOuMQ7MMqZ4LfyGk-42" style="edgeStyle=orthogonalEdgeStyle;rounded=0;orthogonalLoop=1;jettySize=auto;html=1;exitX=0.5;exitY=0;exitDx=0;exitDy=0;entryX=0;entryY=0.5;entryDx=0;entryDy=0;" edge="1" parent="1" source="jbE2yOuMQ7MMqZ4LfyGk-2" target="jbE2yOuMQ7MMqZ4LfyGk-41">
          <mxGeometry relative="1" as="geometry" />
        </mxCell>
        <mxCell id="jbE2yOuMQ7MMqZ4LfyGk-44" style="edgeStyle=orthogonalEdgeStyle;rounded=0;orthogonalLoop=1;jettySize=auto;html=1;exitX=0.75;exitY=0;exitDx=0;exitDy=0;entryX=0;entryY=0.5;entryDx=0;entryDy=0;" edge="1" parent="1" source="jbE2yOuMQ7MMqZ4LfyGk-2" target="jbE2yOuMQ7MMqZ4LfyGk-35">
          <mxGeometry relative="1" as="geometry" />
        </mxCell>
        <mxCell id="jbE2yOuMQ7MMqZ4LfyGk-2" value="Product" style="rounded=1;whiteSpace=wrap;html=1;fillColor=#fff2cc;strokeColor=#d6b656;" vertex="1" parent="1">
          <mxGeometry x="150" y="360" width="120" height="60" as="geometry" />
        </mxCell>
        <mxCell id="jbE2yOuMQ7MMqZ4LfyGk-6" style="edgeStyle=orthogonalEdgeStyle;rounded=0;orthogonalLoop=1;jettySize=auto;html=1;exitX=0.5;exitY=1;exitDx=0;exitDy=0;entryX=0;entryY=0.5;entryDx=0;entryDy=0;" edge="1" parent="1" source="jbE2yOuMQ7MMqZ4LfyGk-4" target="jbE2yOuMQ7MMqZ4LfyGk-5">
          <mxGeometry relative="1" as="geometry" />
        </mxCell>
        <mxCell id="jbE2yOuMQ7MMqZ4LfyGk-12" style="edgeStyle=orthogonalEdgeStyle;rounded=0;orthogonalLoop=1;jettySize=auto;html=1;exitX=0.25;exitY=1;exitDx=0;exitDy=0;entryX=0.5;entryY=0;entryDx=0;entryDy=0;" edge="1" parent="1" source="jbE2yOuMQ7MMqZ4LfyGk-4" target="jbE2yOuMQ7MMqZ4LfyGk-11">
          <mxGeometry relative="1" as="geometry" />
        </mxCell>
        <mxCell id="jbE2yOuMQ7MMqZ4LfyGk-28" style="edgeStyle=orthogonalEdgeStyle;rounded=0;orthogonalLoop=1;jettySize=auto;html=1;exitX=0.25;exitY=0;exitDx=0;exitDy=0;entryX=0.325;entryY=1.017;entryDx=0;entryDy=0;entryPerimeter=0;" edge="1" parent="1" source="jbE2yOuMQ7MMqZ4LfyGk-4" target="jbE2yOuMQ7MMqZ4LfyGk-21">
          <mxGeometry relative="1" as="geometry" />
        </mxCell>
        <mxCell id="jbE2yOuMQ7MMqZ4LfyGk-40" style="edgeStyle=orthogonalEdgeStyle;rounded=0;orthogonalLoop=1;jettySize=auto;html=1;exitX=0.75;exitY=0;exitDx=0;exitDy=0;entryX=0;entryY=0.5;entryDx=0;entryDy=0;" edge="1" parent="1" source="jbE2yOuMQ7MMqZ4LfyGk-4" target="jbE2yOuMQ7MMqZ4LfyGk-39">
          <mxGeometry relative="1" as="geometry" />
        </mxCell>
        <mxCell id="jbE2yOuMQ7MMqZ4LfyGk-45" style="edgeStyle=orthogonalEdgeStyle;rounded=0;orthogonalLoop=1;jettySize=auto;html=1;exitX=0;exitY=0.25;exitDx=0;exitDy=0;entryX=1.025;entryY=0.383;entryDx=0;entryDy=0;entryPerimeter=0;" edge="1" parent="1" source="jbE2yOuMQ7MMqZ4LfyGk-4" target="jbE2yOuMQ7MMqZ4LfyGk-35">
          <mxGeometry relative="1" as="geometry" />
        </mxCell>
        <mxCell id="jbE2yOuMQ7MMqZ4LfyGk-4" value="Product Attribue" style="rounded=1;whiteSpace=wrap;html=1;fillColor=#fff2cc;strokeColor=#d6b656;" vertex="1" parent="1">
          <mxGeometry x="560" y="250" width="120" height="60" as="geometry" />
        </mxCell>
        <mxCell id="jbE2yOuMQ7MMqZ4LfyGk-5" value="Product Attribue Option" style="rounded=1;whiteSpace=wrap;html=1;fillColor=#d5e8d4;strokeColor=#82b366;" vertex="1" parent="1">
          <mxGeometry x="650" y="320" width="120" height="60" as="geometry" />
        </mxCell>
        <mxCell id="jbE2yOuMQ7MMqZ4LfyGk-9" value="Family" style="rounded=1;whiteSpace=wrap;html=1;fillColor=#d5e8d4;strokeColor=#82b366;" vertex="1" parent="1">
          <mxGeometry x="380" y="360" width="120" height="60" as="geometry" />
        </mxCell>
        <mxCell id="jbE2yOuMQ7MMqZ4LfyGk-10" value="" style="edgeStyle=orthogonalEdgeStyle;rounded=0;orthogonalLoop=1;jettySize=auto;html=1;exitX=1;exitY=0.5;exitDx=0;exitDy=0;entryX=0;entryY=0.5;entryDx=0;entryDy=0;endArrow=none;" edge="1" parent="1" source="jbE2yOuMQ7MMqZ4LfyGk-2" target="jbE2yOuMQ7MMqZ4LfyGk-9">
          <mxGeometry relative="1" as="geometry">
            <mxPoint x="280" y="280" as="sourcePoint" />
            <mxPoint x="560" y="280" as="targetPoint" />
          </mxGeometry>
        </mxCell>
        <mxCell id="jbE2yOuMQ7MMqZ4LfyGk-14" style="edgeStyle=orthogonalEdgeStyle;rounded=0;orthogonalLoop=1;jettySize=auto;html=1;exitX=0;exitY=0.5;exitDx=0;exitDy=0;" edge="1" parent="1" source="jbE2yOuMQ7MMqZ4LfyGk-11" target="jbE2yOuMQ7MMqZ4LfyGk-13">
          <mxGeometry relative="1" as="geometry" />
        </mxCell>
        <mxCell id="jbE2yOuMQ7MMqZ4LfyGk-16" style="edgeStyle=orthogonalEdgeStyle;rounded=0;orthogonalLoop=1;jettySize=auto;html=1;exitX=0.5;exitY=1;exitDx=0;exitDy=0;entryX=0;entryY=0.5;entryDx=0;entryDy=0;" edge="1" parent="1" source="jbE2yOuMQ7MMqZ4LfyGk-11" target="jbE2yOuMQ7MMqZ4LfyGk-15">
          <mxGeometry relative="1" as="geometry" />
        </mxCell>
        <mxCell id="jbE2yOuMQ7MMqZ4LfyGk-11" value="Reference Entity Record" style="rounded=1;whiteSpace=wrap;html=1;fillColor=#f8cecc;strokeColor=#b85450;" vertex="1" parent="1">
          <mxGeometry x="530" y="400" width="120" height="60" as="geometry" />
        </mxCell>
        <mxCell id="jbE2yOuMQ7MMqZ4LfyGk-13" value="Reference Entity" style="rounded=1;whiteSpace=wrap;html=1;fillColor=#f8cecc;strokeColor=#b85450;" vertex="1" parent="1">
          <mxGeometry x="450" y="470" width="120" height="60" as="geometry" />
        </mxCell>
        <mxCell id="jbE2yOuMQ7MMqZ4LfyGk-18" style="edgeStyle=orthogonalEdgeStyle;rounded=0;orthogonalLoop=1;jettySize=auto;html=1;exitX=0.5;exitY=1;exitDx=0;exitDy=0;entryX=0;entryY=0.5;entryDx=0;entryDy=0;" edge="1" parent="1" source="jbE2yOuMQ7MMqZ4LfyGk-15" target="jbE2yOuMQ7MMqZ4LfyGk-17">
          <mxGeometry relative="1" as="geometry" />
        </mxCell>
        <mxCell id="jbE2yOuMQ7MMqZ4LfyGk-20" style="edgeStyle=orthogonalEdgeStyle;rounded=0;orthogonalLoop=1;jettySize=auto;html=1;exitX=0.308;exitY=1;exitDx=0;exitDy=0;entryX=0.2;entryY=0.033;entryDx=0;entryDy=0;entryPerimeter=0;exitPerimeter=0;" edge="1" parent="1" source="jbE2yOuMQ7MMqZ4LfyGk-15" target="jbE2yOuMQ7MMqZ4LfyGk-19">
          <mxGeometry relative="1" as="geometry" />
        </mxCell>
        <mxCell id="jbE2yOuMQ7MMqZ4LfyGk-15" value="Reference Entity&lt;br&gt;Attribute" style="rounded=1;whiteSpace=wrap;html=1;fillColor=#f8cecc;strokeColor=#b85450;" vertex="1" parent="1">
          <mxGeometry x="610" y="480" width="120" height="60" as="geometry" />
        </mxCell>
        <mxCell id="jbE2yOuMQ7MMqZ4LfyGk-17" value="Reference Entity&lt;br&gt;Attribute Option" style="rounded=1;whiteSpace=wrap;html=1;fillColor=#f8cecc;strokeColor=#b85450;" vertex="1" parent="1">
          <mxGeometry x="690" y="555" width="120" height="60" as="geometry" />
        </mxCell>
        <mxCell id="jbE2yOuMQ7MMqZ4LfyGk-19" value="Reference Entity&lt;br&gt;Media File" style="rounded=1;whiteSpace=wrap;html=1;fillColor=#f8cecc;strokeColor=#b85450;" vertex="1" parent="1">
          <mxGeometry x="610" y="630" width="120" height="60" as="geometry" />
        </mxCell>
        <mxCell id="jbE2yOuMQ7MMqZ4LfyGk-30" style="edgeStyle=orthogonalEdgeStyle;rounded=0;orthogonalLoop=1;jettySize=auto;html=1;exitX=0.5;exitY=0;exitDx=0;exitDy=0;entryX=0;entryY=0.5;entryDx=0;entryDy=0;" edge="1" parent="1" source="jbE2yOuMQ7MMqZ4LfyGk-21" target="jbE2yOuMQ7MMqZ4LfyGk-29">
          <mxGeometry relative="1" as="geometry" />
        </mxCell>
        <mxCell id="jbE2yOuMQ7MMqZ4LfyGk-34" style="edgeStyle=orthogonalEdgeStyle;rounded=0;orthogonalLoop=1;jettySize=auto;html=1;exitX=0.25;exitY=0;exitDx=0;exitDy=0;entryX=0.425;entryY=1.017;entryDx=0;entryDy=0;entryPerimeter=0;" edge="1" parent="1" source="jbE2yOuMQ7MMqZ4LfyGk-21" target="jbE2yOuMQ7MMqZ4LfyGk-33">
          <mxGeometry relative="1" as="geometry" />
        </mxCell>
        <mxCell id="jbE2yOuMQ7MMqZ4LfyGk-21" value="Asset" style="rounded=1;whiteSpace=wrap;html=1;fillColor=#fff2cc;strokeColor=#d6b656;" vertex="1" parent="1">
          <mxGeometry x="550" y="130" width="120" height="60" as="geometry" />
        </mxCell>
        <mxCell id="jbE2yOuMQ7MMqZ4LfyGk-22" value="Category" style="rounded=1;whiteSpace=wrap;html=1;fillColor=#d5e8d4;strokeColor=#82b366;" vertex="1" parent="1">
          <mxGeometry x="10" y="30" width="120" height="60" as="geometry" />
        </mxCell>
        <mxCell id="jbE2yOuMQ7MMqZ4LfyGk-27" style="edgeStyle=orthogonalEdgeStyle;rounded=0;orthogonalLoop=1;jettySize=auto;html=1;exitX=0.75;exitY=1;exitDx=0;exitDy=0;entryX=0.358;entryY=0;entryDx=0;entryDy=0;entryPerimeter=0;" edge="1" parent="1" source="jbE2yOuMQ7MMqZ4LfyGk-25" target="jbE2yOuMQ7MMqZ4LfyGk-9">
          <mxGeometry relative="1" as="geometry">
            <Array as="points">
              <mxPoint x="430" y="360" />
            </Array>
          </mxGeometry>
        </mxCell>
        <mxCell id="jbE2yOuMQ7MMqZ4LfyGk-25" value="Family Variant" style="rounded=1;whiteSpace=wrap;html=1;fillColor=#f8cecc;strokeColor=#b85450;" vertex="1" parent="1">
          <mxGeometry x="340" y="90" width="120" height="60" as="geometry" />
        </mxCell>
        <mxCell id="jbE2yOuMQ7MMqZ4LfyGk-32" style="edgeStyle=orthogonalEdgeStyle;rounded=0;orthogonalLoop=1;jettySize=auto;html=1;exitX=0.25;exitY=0;exitDx=0;exitDy=0;entryX=0;entryY=0.5;entryDx=0;entryDy=0;" edge="1" parent="1" source="jbE2yOuMQ7MMqZ4LfyGk-29" target="jbE2yOuMQ7MMqZ4LfyGk-31">
          <mxGeometry relative="1" as="geometry" />
        </mxCell>
        <mxCell id="jbE2yOuMQ7MMqZ4LfyGk-29" value="Asset Attribute" style="rounded=1;whiteSpace=wrap;html=1;fillColor=#fff2cc;strokeColor=#d6b656;" vertex="1" parent="1">
          <mxGeometry x="630" y="60" width="120" height="60" as="geometry" />
        </mxCell>
        <mxCell id="jbE2yOuMQ7MMqZ4LfyGk-31" value="Asset Attribute &lt;br&gt;Option" style="rounded=1;whiteSpace=wrap;html=1;fillColor=#fff2cc;strokeColor=#d6b656;" vertex="1" parent="1">
          <mxGeometry x="680" y="-20" width="120" height="60" as="geometry" />
        </mxCell>
        <mxCell id="jbE2yOuMQ7MMqZ4LfyGk-33" value="Asset Media File" style="rounded=1;whiteSpace=wrap;html=1;fillColor=#fff2cc;strokeColor=#d6b656;" vertex="1" parent="1">
          <mxGeometry x="530" y="-40" width="120" height="60" as="geometry" />
        </mxCell>
        <mxCell id="jbE2yOuMQ7MMqZ4LfyGk-35" value="Channel" style="rounded=1;whiteSpace=wrap;html=1;fillColor=#d5e8d4;strokeColor=#82b366;" vertex="1" parent="1">
          <mxGeometry x="260" y="290" width="120" height="60" as="geometry" />
        </mxCell>
        <mxCell id="jbE2yOuMQ7MMqZ4LfyGk-39" value="Measurement" style="rounded=1;whiteSpace=wrap;html=1;fillColor=#d5e8d4;strokeColor=#82b366;" vertex="1" parent="1">
          <mxGeometry x="690" y="190" width="120" height="60" as="geometry" />
        </mxCell>
        <mxCell id="jbE2yOuMQ7MMqZ4LfyGk-41" value="Relation" style="rounded=1;whiteSpace=wrap;html=1;fillColor=#f8cecc;strokeColor=#b85450;" vertex="1" parent="1">
          <mxGeometry x="270" y="180" width="120" height="60" as="geometry" />
        </mxCell>
      </root>
    </mxGraphModel>
  </diagram>
</mxfile>
